<?xml version="1.0" encoding="utf-8"?>
<!-- Generator: Adobe Illustrator 19.2.1, SVG Export Plug-In . SVG Version: 6.00 Build 0)  -->
<svg version="1.1" id="Layer_1" xmlns="http://www.w3.org/2000/svg" xmlns:xlink="http://www.w3.org/1999/xlink" x="0px" y="0px"
	 viewBox="0 0 100 125" style="enable-background:new 0 0 100 125;" xml:space="preserve">
<style type="text/css">
	.st0{fill:none;}
	.st1{opacity:0.3;stroke:#000000;stroke-width:0.1;stroke-miterlimit:10;}
</style>
	<defs>
		<style type="text/css">
			<![CDATA[

		  	ellipse {
              stroke-dasharray: 5;
              -webkit-animation: dash 10s linear infinite;
              animation: dash 10s linear infinite;
              stroke: #2886af;
            }

            @-webkit-keyframes dash {
              to {
                stroke-dashoffset: 500;
              }
            }

            @keyframes dash {
              to {
                stroke-dashoffset: 500;
              }
            }

			#path1 {
			  -webkit-animation: wifianimation 1s infinite;
			  animation: wifianimation 1s infinite;
			  -webkit-animation-delay: 800ms;
  			  animation-delay: 800ms;
			}

			#path2 {
			  -webkit-animation: wifianimation 1s infinite;
			  animation: wifianimation 1s infinite;
			  -webkit-animation-delay: 400ms;
  			  animation-delay: 400ms;
			}

			#path3 {
			  -webkit-animation: wifianimation 1s infinite;
			  animation: wifianimation 1s infinite;
			}

			@-webkit-keyframes wifianimation {
			  0% {
				opacity: 0;
			  }
			  5% {
				opactiy: 1;
			  }
			  6% {
				opactiy: 0.1;
			  }
			  100% {
				opactiy: 0.1;
			  }
			}

			@keyframes wifianimation {
			  0% {
				opacity: 0;
			  }
			  5% {
				opactiy: 1;
			  }
			  6% {
				opactiy: 0.1;
			  }
			  100% {
				opactiy: 0.1;
			  }
			}
		]]>
		</style>
	</defs>
<title>Layer 1</title>
<path id="path3" d="M50,59.7c-1.8,0-3.5-0.7-4.8-2c-0.2-0.2-0.2-0.6,0-0.8c0.2-0.2,0.6-0.2,0.8,0c2.2,2.2,5.8,2.2,8,0
	c0.2-0.2,0.6-0.2,0.8,0c0.2,0.2,0.2,0.6,0,0.8C53.5,59,51.8,59.7,50,59.7z"/>
<path id="path2" d="M50,63.6c-2.8,0-5.4-1.1-7.3-3c-0.2-0.2-0.2-0.6,0-0.8s0.6-0.2,0.8,0c1.7,1.7,4.1,2.7,6.5,2.7s4.8-1,6.5-2.7
	c0.2-0.2,0.6-0.2,0.8,0c0.2,0.2,0.2,0.6,0,0.8C55.4,62.5,52.8,63.6,50,63.6z"/>
<path id="path1" d="M50,68c-4.2,0-8.1-1.6-11-4.6c-0.2-0.2-0.2-0.6,0-0.8c0.2-0.2,0.6-0.2,0.8,0c2.7,2.7,6.4,4.2,10.2,4.2
	c3.9,0,7.5-1.5,10.2-4.2c0.2-0.2,0.6-0.2,0.8,0c0.2,0.2,0.2,0.6,0,0.8C58.1,66.4,54.2,68,50,68z"/>
<g id="azYT0H_1_">
	
		<image style="overflow:visible;" width="327" height="80" id="azYT0H" xlink:href="9C698FC2EF41D5EF.png"  transform="matrix(1 0 0 1 -84.9743 -83.0542)">
	</image>
</g>
<g>
	<path d="M69.5,50c0.3,0,0.5-0.6,0.5-0.9c0-0.5-0.4-1-1-1s-1,0.5-1,1.1c0,0.4,0.2,0.9,0.5,0.9h-1l0,1.6l-2.2-0.6l1.1-8.9h-1.2
		c0.3,0,0.6-0.4,0.6-0.7c0-0.4-0.4-0.8-0.8-0.8c-0.4,0-0.8,0.3-0.8,0.8c0,0.4,0.2,0.7,0.6,0.7h-0.9l0.1,1.8L58,45.5V45h-4v-2h-8v2
		h-4v0.2l-6-1.7l0-1.5H35c0.4,0,0.7-0.3,0.7-0.7c0-0.4-0.4-0.8-0.8-0.8c-0.4,0-0.8,0.3-0.8,0.8c0,0.4,0.3,0.8,0.7,0.8h-1.3l1.1,9
		l-1.9,0.7l0-1.7h-3.4l1.9,15h1.7l-0.2-11.7l2.1-0.6l0.2,1.2h1.3l-0.1-1.6L42,51v0h4v4h8v-4h4v-0.2l5.8,1.5L63.6,54h1.3l0.2-1.3
		l2.4,0.5L67.3,65H69l1.9-15H69.5z M36.1,50.7L36,45.1l6,1.6v2.4L36.1,50.7z M58,48.9V47l5.9-1.6l0,5.1L58,48.9z"/>
	<circle cx="31" cy="48.7" r="1"/>
</g>
<ellipse class="st1" cx="34.5" cy="41" rx="10.3" ry="3.3"/>
<ellipse class="st1" cx="65.5" cy="41.3" rx="10.3" ry="3.3"/>
<ellipse class="st1" cx="68.7" cy="49.2" rx="11.8" ry="3.7"/>
<ellipse class="st1" cx="31.9" cy="48.9" rx="11.8" ry="3.7"/>
</svg>
